<svg width="18" height="12" viewBox="0 0 18 12" fill="none" xmlns="http://www.w3.org/2000/svg">
<path d="M8.29764 0.999692L0.287559 9.00992C0.102145 9.19519 -8.06437e-08 9.4425 -6.91167e-08 9.70621C-5.75898e-08 9.96991 0.102145 10.2172 0.287559 10.4025L0.87731 10.9924C1.2616 11.3762 1.88618 11.3762 2.26988 10.9924L8.99627 4.26601L15.7301 10.9999C15.9155 11.1851 16.1627 11.2874 16.4263 11.2874C16.6901 11.2874 16.9373 11.1851 17.1228 10.9999L17.7124 10.41C17.8979 10.2245 18 9.97738 18 9.71367C18 9.44996 17.8979 9.20265 17.7124 9.01738L9.69504 0.999692C9.50904 0.813986 9.26071 0.711987 8.99671 0.712573C8.73169 0.711987 8.48349 0.813986 8.29764 0.999692Z" fill="white"/>
</svg>
